PathFileType	4	(X/Y/Z)	OpenSim_Sub01_CSBaseline_Accel.trc
DataRate	CameraRate	NumFrames	NumMarkers	Units	OrigDataRate	OrigDataStartFrame	OrigNumFrames
100	100	23	8	m	100	3719	5950
Frame#	Time	torso_imu_offset_imu	pelvis_imu_offset_imu	tibia_r_imu_offset_imu	femur_r_imu_offset_imu	tibia_l_imu_offset_imu	femur_l_imu_offset_imu	toes_r_imu_offset_imu	toes_l_imu_offset_imu
				X1	Y1	Z1	X2	Y2	Z2	X3	Y3	Z3	X4	Y4	Z4	X5	Y5	Z5	X6	Y6	Z6	X7	Y7	Z7	X8		Y8	Z8	

3719	37.18000000	8.30938191	-1.68916822	6.45199042	8.74549611	1.04053774	1.81759603	9.85146047	1.49925279	-0.50714764	9.37974908	-0.02290788	-0.27581204	11.32836656	-3.86525651	1.58040012	8.22465695	2.19369058	0.97047210	5.45809561	-1.66351140	8.27714632	17.43685420	3.57274120	12.61225988
3720	37.19000000	8.40282300	-1.70174982	6.43776215	8.89882873	0.97252468	1.65974541	9.92682020	1.54564349	-0.40755391	9.52061003	0.14293694	-0.16042630	11.45803773	-3.53380794	2.11581575	8.53668004	2.79239749	1.24002147	5.51511018	-1.61515427	8.28783194	18.22231966	3.34611029	11.56324994
3721	37.20000000	8.53302078	-1.70893311	6.42079808	9.07152281	0.97577116	1.54370333	10.02892169	1.47787815	-0.36475157	9.63602193	0.16406918	-0.01929778	11.72364770	-3.06186394	2.06877972	8.84571790	3.43402287	1.57330087	5.49879203	-1.58917102	8.33728086	18.38366564	2.69390108	9.89349304
3722	37.21000000	8.69590786	-1.72620649	6.38441985	9.22607326	1.04899496	1.49126899	10.15659299	1.38486913	-0.40040649	9.69939122	-0.01096130	0.11237198	12.17716431	-2.60410922	1.03392525	9.04202389	4.13380747	1.94478304	5.39650848	-1.60302731	8.42364389	18.05872781	1.75052323	7.80745529
3723	37.22000000	8.86169028	-1.74756462	6.35005597	9.35382474	1.15768599	1.48170450	10.26385527	1.26769195	-0.46129484	9.73493954	-0.27401407	0.16938262	12.59627374	-2.32660028	-0.10857688	9.10867061	5.05237798	2.31754882	5.29358869	-1.61817913	8.50964779	17.52818311	0.70659882	5.46502024
3724	37.23000000	9.00051233	-1.76494674	6.34250044	9.45240755	1.26580929	1.48989334	10.30818831	1.11496157	-0.48609037	9.77334610	-0.50409440	0.08978361	12.73886023	-2.37244647	-0.40757041	9.04332419	6.32971996	2.65669144	5.27823827	-1.59261449	8.55766794	17.08906357	-0.27142384	3.02648502
3725	37.24000000	9.11781701	-1.77909651	6.36806189	9.54404358	1.36800233	1.50493393	10.34536559	0.90935000	-0.43443069	9.84097366	-0.67042933	-0.11292153	12.54151104	-2.63197513	0.02522081	8.86465415	7.68964474	2.96399220	5.33152006	-1.52675625	8.57593482	17.00771681	-1.34517761	0.71869224
3726	37.25000000	9.23978036	-1.79593526	6.42214593	9.66533783	1.47696873	1.52423306	10.48871514	0.63022890	-0.27854366	9.96146226	-0.79555275	-0.38068760	12.04665599	-2.84680745	0.45215318	8.60392853	8.61147824	3.26259725	5.37147433	-1.44605597	8.59963790	17.53104940	-2.86795787	-1.19332893
3727	37.26000000	9.37348568	-1.81796519	6.50052559	9.82667104	1.59951944	1.52884344	10.76042478	0.30052988	-0.03802663	10.12104118	-0.91982956	-0.64899393	11.38655705	-2.84604138	0.36544805	8.33659986	8.79079183	3.51676492	5.35474534	-1.37508668	8.64460267	18.62188414	-4.79536245	-2.67124111
3728	37.27000000	9.48281744	-1.83991018	6.60010811	9.97949566	1.72879621	1.46308780	10.97766418	0.04047358	0.16219204	10.22254480	-1.12187306	-0.84015578	10.89086358	-2.65824737	-0.21173214	8.23634467	8.41270922	3.55874292	5.32593064	-1.33573942	8.68267080	19.60973743	-6.19009190	-4.18361835
3729	37.28000000	9.53013364	-1.85542040	6.71656011	10.07439106	1.85560644	1.27628722	10.95538615	-0.02755848	0.19710425	10.17144108	-1.46677723	-0.88371855	10.86466298	-2.35241067	-1.15932634	8.45470495	7.71806907	3.21871303	5.33550316	-1.34915517	8.68255355	19.76871121	-6.10343721	-6.11069008
3730	37.29000000	9.52237651	-1.85792626	6.83115620	10.13523699	1.96575280	1.02067002	10.77203745	0.10522468	0.08801056	10.01687640	-1.82664064	-0.80225718	11.08375345	-2.13610941	-2.09857613	8.77750920	6.83905722	2.48992913	5.37173314	-1.43247770	8.64208399	18.68546584	-4.71614739	-7.21256940
3731	37.30000000	9.49283618	-1.84072953	6.91679039	10.22906783	2.04203286	0.80905258	10.66109511	0.38055571	-0.05761118	9.89258952	-1.96030709	-0.67316712	11.01333389	-2.29700727	-2.49945183	8.77634489	5.84375172	1.46208835	5.38633124	-1.60037071	8.57630009	16.13278115	-2.87427446	-5.30114366
3732	37.31000000	9.48481399	-1.79734394	6.96954678	10.40467271	2.05606879	0.72924008	10.76962854	0.72954676	-0.16021405	9.89733336	-1.75281933	-0.56142702	10.46498984	-2.76834205	-2.11536931	8.34018373	4.79761439	0.27689471	5.35950299	-1.84162213	8.50567931	12.25190156	-1.21695623	0.22219661
3733	37.32000000	9.56318908	-1.72175978	7.03749448	10.66888619	1.95463415	0.81148366	11.04743777	1.06154680	-0.20505770	10.04935854	-1.37406989	-0.50272939	10.03214559	-2.69022272	-1.33654991	8.07234528	3.76211827	-0.81068768	5.33608797	-2.08735549	8.46233984	8.00084730	0.09753710	6.38210749
3734	37.33000000	9.78453142	-1.60928056	7.16839189	11.01623541	1.68996287	1.07287249	11.42202153	1.28640550	-0.18273208	10.35024502	-1.02601593	-0.52031699	10.33980458	-1.21195832	-0.58727035	8.59830251	2.79516109	-1.53797388	5.36304541	-2.26393650	8.47733387	4.47507956	0.98795641	10.04278258
3735	37.34000000	10.08948889	-1.46810132	7.33417427	11.37279508	1.30536970	1.47501086	11.86620475	1.34954167	-0.04832971	10.74192094	-0.84374436	-0.54981483	11.24686763	1.31428036	0.24614162	9.77439340	1.92330241	-1.72077995	5.41893267	-2.32916114	8.55444799	3.04803126	1.49648734	11.40414944
3736	37.35000000	10.35064154	-1.31399064	7.46222145	11.62455086	0.89779802	1.94683286	12.37944214	1.21759791	0.26377362	11.13117881	-0.92251676	-0.47534997	12.16129294	3.82700952	1.59256557	11.00420800	1.15542053	-1.22205883	5.44202866	-2.25955218	8.68126373	5.24900927	1.73774108	12.62871454
3737	37.36000000	10.50750733	-1.15608918	7.51667230	11.71935448	0.54280674	2.43017550	12.93816164	0.90834156	0.77181227	11.43617682	-1.27748515	-0.22105528	12.70076163	5.32148278	3.42839985	11.89758493	0.67116470	-0.08037365	5.38599425	-2.07101150	8.81976405	10.88917946	1.74366648	14.77548018
3738	37.37000000	10.65092363	-0.98853042	7.54496981	11.74425342	0.26669364	2.89660781	13.46664425	0.55300089	1.38768359	11.60144630	-1.74620406	0.19818769	12.96390754	4.94000597	4.71134570	12.53761526	1.03172975	1.27523836	5.23997305	-1.86676614	8.87528189	15.94157917	1.35968194	16.38463671
3739	37.38000000	10.87237658	-0.80457913	7.59829004	11.78913968	0.08643633	3.32039067	13.88635831	0.28276756	2.00539973	11.58515344	-2.14398205	0.74791941	13.07839556	2.01536458	4.39210018	13.03580262	2.75415211	2.37004996	5.00608619	-1.74928980	8.74966142	16.33456280	0.45690054	15.86309393
3740	37.39000000	11.05867866	-0.60949487	7.64998390	11.77883436	-0.00839481	3.66204279	14.16257700	0.06996689	2.48286952	11.44938618	-2.30454583	1.31832794	12.79977591	-2.35862716	2.77202193	13.13590662	5.36663069	2.80308217	4.77086516	-1.69129859	8.38786192	12.89649563	-0.56774745	13.76023384
3741	37.40000000	10.97651188	-0.41560770	7.62763812	11.54128888	-0.04430279	3.87413801	14.28627624	-0.20633197	2.65717473	11.31710265	-2.07300858	1.75540401	11.66602503	-6.05317175	0.94769450	12.36678832	7.81412578	2.21864371	4.67100546	-1.58953375	7.76108754	9.33952108	-1.00891652	11.88583849
